G04 #@! TF.GenerationSoftware,KiCad,Pcbnew,5.1.5-52549c5~84~ubuntu19.04.1*
G04 #@! TF.CreationDate,2020-02-16T02:46:56+01:00*
G04 #@! TF.ProjectId,ilulissat_debug,696c756c-6973-4736-9174-5f6465627567,rev?*
G04 #@! TF.SameCoordinates,Original*
G04 #@! TF.FileFunction,Legend,Top*
G04 #@! TF.FilePolarity,Positive*
%FSLAX46Y46*%
G04 Gerber Fmt 4.6, Leading zero omitted, Abs format (unit mm)*
G04 Created by KiCad (PCBNEW 5.1.5-52549c5~84~ubuntu19.04.1) date 2020-02-16 02:46:56*
%MOMM*%
%LPD*%
G04 APERTURE LIST*
%ADD10C,0.150000*%
%ADD11C,0.120000*%
G04 APERTURE END LIST*
D10*
X148971428Y-106077380D02*
X149590476Y-106077380D01*
X149257142Y-106458333D01*
X149399999Y-106458333D01*
X149495238Y-106505952D01*
X149542857Y-106553571D01*
X149590476Y-106648809D01*
X149590476Y-106886904D01*
X149542857Y-106982142D01*
X149495238Y-107029761D01*
X149399999Y-107077380D01*
X149114285Y-107077380D01*
X149019047Y-107029761D01*
X148971428Y-106982142D01*
X150019047Y-106982142D02*
X150066666Y-107029761D01*
X150019047Y-107077380D01*
X149971428Y-107029761D01*
X150019047Y-106982142D01*
X150019047Y-107077380D01*
X150399999Y-106077380D02*
X151019047Y-106077380D01*
X150685714Y-106458333D01*
X150828571Y-106458333D01*
X150923809Y-106505952D01*
X150971428Y-106553571D01*
X151019047Y-106648809D01*
X151019047Y-106886904D01*
X150971428Y-106982142D01*
X150923809Y-107029761D01*
X150828571Y-107077380D01*
X150542857Y-107077380D01*
X150447619Y-107029761D01*
X150399999Y-106982142D01*
X151304761Y-106077380D02*
X151638095Y-107077380D01*
X151971428Y-106077380D01*
X149019048Y-105644761D02*
X149161905Y-105692380D01*
X149400000Y-105692380D01*
X149495238Y-105644761D01*
X149542857Y-105597142D01*
X149590476Y-105501904D01*
X149590476Y-105406666D01*
X149542857Y-105311428D01*
X149495238Y-105263809D01*
X149400000Y-105216190D01*
X149209524Y-105168571D01*
X149114286Y-105120952D01*
X149066667Y-105073333D01*
X149019048Y-104978095D01*
X149019048Y-104882857D01*
X149066667Y-104787619D01*
X149114286Y-104740000D01*
X149209524Y-104692380D01*
X149447619Y-104692380D01*
X149590476Y-104740000D01*
X149923810Y-104692380D02*
X150161905Y-105692380D01*
X150352381Y-104978095D01*
X150542857Y-105692380D01*
X150780953Y-104692380D01*
X151733333Y-105597142D02*
X151685714Y-105644761D01*
X151542857Y-105692380D01*
X151447619Y-105692380D01*
X151304762Y-105644761D01*
X151209524Y-105549523D01*
X151161905Y-105454285D01*
X151114286Y-105263809D01*
X151114286Y-105120952D01*
X151161905Y-104930476D01*
X151209524Y-104835238D01*
X151304762Y-104740000D01*
X151447619Y-104692380D01*
X151542857Y-104692380D01*
X151685714Y-104740000D01*
X151733333Y-104787619D01*
X152638095Y-105692380D02*
X152161905Y-105692380D01*
X152161905Y-104692380D01*
X152971429Y-105692380D02*
X152971429Y-104692380D01*
X153542857Y-105692380D02*
X153114286Y-105120952D01*
X153542857Y-104692380D02*
X152971429Y-105263809D01*
X149590476Y-103355000D02*
X149495238Y-103307380D01*
X149352381Y-103307380D01*
X149209523Y-103355000D01*
X149114285Y-103450238D01*
X149066666Y-103545476D01*
X149019047Y-103735952D01*
X149019047Y-103878809D01*
X149066666Y-104069285D01*
X149114285Y-104164523D01*
X149209523Y-104259761D01*
X149352381Y-104307380D01*
X149447619Y-104307380D01*
X149590476Y-104259761D01*
X149638095Y-104212142D01*
X149638095Y-103878809D01*
X149447619Y-103878809D01*
X150066666Y-104307380D02*
X150066666Y-103307380D01*
X150638095Y-104307380D01*
X150638095Y-103307380D01*
X151114285Y-104307380D02*
X151114285Y-103307380D01*
X151352381Y-103307380D01*
X151495238Y-103355000D01*
X151590476Y-103450238D01*
X151638095Y-103545476D01*
X151685714Y-103735952D01*
X151685714Y-103878809D01*
X151638095Y-104069285D01*
X151590476Y-104164523D01*
X151495238Y-104259761D01*
X151352381Y-104307380D01*
X151114285Y-104307380D01*
X149019048Y-102874761D02*
X149161905Y-102922380D01*
X149400000Y-102922380D01*
X149495238Y-102874761D01*
X149542857Y-102827142D01*
X149590476Y-102731904D01*
X149590476Y-102636666D01*
X149542857Y-102541428D01*
X149495238Y-102493809D01*
X149400000Y-102446190D01*
X149209524Y-102398571D01*
X149114286Y-102350952D01*
X149066667Y-102303333D01*
X149019048Y-102208095D01*
X149019048Y-102112857D01*
X149066667Y-102017619D01*
X149114286Y-101970000D01*
X149209524Y-101922380D01*
X149447619Y-101922380D01*
X149590476Y-101970000D01*
X149923810Y-101922380D02*
X150161905Y-102922380D01*
X150352381Y-102208095D01*
X150542857Y-102922380D01*
X150780953Y-101922380D01*
X151161905Y-102922380D02*
X151161905Y-101922380D01*
X151400000Y-101922380D01*
X151542857Y-101970000D01*
X151638096Y-102065238D01*
X151685715Y-102160476D01*
X151733334Y-102350952D01*
X151733334Y-102493809D01*
X151685715Y-102684285D01*
X151638096Y-102779523D01*
X151542857Y-102874761D01*
X151400000Y-102922380D01*
X151161905Y-102922380D01*
X152161905Y-102922380D02*
X152161905Y-101922380D01*
X152828572Y-101922380D02*
X153019048Y-101922380D01*
X153114286Y-101970000D01*
X153209524Y-102065238D01*
X153257143Y-102255714D01*
X153257143Y-102589047D01*
X153209524Y-102779523D01*
X153114286Y-102874761D01*
X153019048Y-102922380D01*
X152828572Y-102922380D01*
X152733334Y-102874761D01*
X152638096Y-102779523D01*
X152590476Y-102589047D01*
X152590476Y-102255714D01*
X152638096Y-102065238D01*
X152733334Y-101970000D01*
X152828572Y-101922380D01*
X149066667Y-100537380D02*
X149066667Y-101346904D01*
X149114286Y-101442142D01*
X149161905Y-101489761D01*
X149257143Y-101537380D01*
X149447619Y-101537380D01*
X149542857Y-101489761D01*
X149590476Y-101442142D01*
X149638095Y-101346904D01*
X149638095Y-100537380D01*
X150066667Y-101251666D02*
X150542857Y-101251666D01*
X149971428Y-101537380D02*
X150304762Y-100537380D01*
X150638095Y-101537380D01*
X151542857Y-101537380D02*
X151209524Y-101061190D01*
X150971428Y-101537380D02*
X150971428Y-100537380D01*
X151352381Y-100537380D01*
X151447619Y-100585000D01*
X151495238Y-100632619D01*
X151542857Y-100727857D01*
X151542857Y-100870714D01*
X151495238Y-100965952D01*
X151447619Y-101013571D01*
X151352381Y-101061190D01*
X150971428Y-101061190D01*
X151828571Y-100537380D02*
X152400000Y-100537380D01*
X152114286Y-101537380D02*
X152114286Y-100537380D01*
X152495238Y-101632619D02*
X153257143Y-101632619D01*
X154066667Y-101537380D02*
X153733333Y-101061190D01*
X153495238Y-101537380D02*
X153495238Y-100537380D01*
X153876190Y-100537380D01*
X153971428Y-100585000D01*
X154019048Y-100632619D01*
X154066667Y-100727857D01*
X154066667Y-100870714D01*
X154019048Y-100965952D01*
X153971428Y-101013571D01*
X153876190Y-101061190D01*
X153495238Y-101061190D01*
X154400000Y-100537380D02*
X155066667Y-101537380D01*
X155066667Y-100537380D02*
X154400000Y-101537380D01*
X149066666Y-99152380D02*
X149066666Y-99961904D01*
X149114285Y-100057142D01*
X149161904Y-100104761D01*
X149257142Y-100152380D01*
X149447619Y-100152380D01*
X149542857Y-100104761D01*
X149590476Y-100057142D01*
X149638095Y-99961904D01*
X149638095Y-99152380D01*
X150066666Y-99866666D02*
X150542857Y-99866666D01*
X149971428Y-100152380D02*
X150304761Y-99152380D01*
X150638095Y-100152380D01*
X151542857Y-100152380D02*
X151209523Y-99676190D01*
X150971428Y-100152380D02*
X150971428Y-99152380D01*
X151352380Y-99152380D01*
X151447619Y-99200000D01*
X151495238Y-99247619D01*
X151542857Y-99342857D01*
X151542857Y-99485714D01*
X151495238Y-99580952D01*
X151447619Y-99628571D01*
X151352380Y-99676190D01*
X150971428Y-99676190D01*
X151828571Y-99152380D02*
X152400000Y-99152380D01*
X152114285Y-100152380D02*
X152114285Y-99152380D01*
X152495238Y-100247619D02*
X153257142Y-100247619D01*
X153352380Y-99152380D02*
X153923809Y-99152380D01*
X153638095Y-100152380D02*
X153638095Y-99152380D01*
X154161904Y-99152380D02*
X154828571Y-100152380D01*
X154828571Y-99152380D02*
X154161904Y-100152380D01*
D11*
X147000000Y-99240000D02*
X148330000Y-99240000D01*
X148330000Y-99240000D02*
X148330000Y-100000000D01*
X148330000Y-100635000D02*
X148330000Y-107045000D01*
X147307530Y-107045000D02*
X148330000Y-107045000D01*
X145670000Y-107045000D02*
X146692470Y-107045000D01*
X145670000Y-100635000D02*
X145670000Y-107045000D01*
X147760000Y-100635000D02*
X148330000Y-100635000D01*
X145670000Y-100635000D02*
X146240000Y-100635000D01*
D10*
X146666666Y-97317380D02*
X146666666Y-98031666D01*
X146619047Y-98174523D01*
X146523809Y-98269761D01*
X146380952Y-98317380D01*
X146285714Y-98317380D01*
X147666666Y-98317380D02*
X147095238Y-98317380D01*
X147380952Y-98317380D02*
X147380952Y-97317380D01*
X147285714Y-97460238D01*
X147190476Y-97555476D01*
X147095238Y-97603095D01*
M02*
