M48
; DRILL file {KiCad 5.1.5-52549c5~84~ubuntu19.04.1} date 2020-02-16T17:49:05 CET
; FORMAT={-:-/ absolute / inch / decimal}
; #@! TF.CreationDate,2020-02-16T17:49:05+01:00
; #@! TF.GenerationSoftware,Kicad,Pcbnew,5.1.5-52549c5~84~ubuntu19.04.1
FMAT,2
INCH
T1C0.0157
T2C0.0276
T3C0.0394
%
G90
G05
T1
X5.9469Y-4.185
X6.0089Y-4.3563
X6.0571Y-4.2697
X6.0659Y-3.8474
X6.0846Y-4.1624
X6.1467Y-3.9941
X6.31Y-3.874
T2
X5.7874Y-3.937
X5.7874Y-3.987
X5.7874Y-4.037
X5.7874Y-4.087
X5.7874Y-4.137
X5.7874Y-4.187
T3
X6.1094Y-4.4301
X6.2094Y-4.4301
X6.3094Y-4.4301
X6.4094Y-4.4301
X6.1102Y-3.6811
X6.2102Y-3.6811
X6.3102Y-3.6811
X6.4102Y-3.6811
T0
M30
