G04 #@! TF.GenerationSoftware,KiCad,Pcbnew,5.1.5-52549c5~84~ubuntu19.04.1*
G04 #@! TF.CreationDate,2020-02-16T17:49:03+01:00*
G04 #@! TF.ProjectId,ilulissat_debug,696c756c-6973-4736-9174-5f6465627567,rev?*
G04 #@! TF.SameCoordinates,Original*
G04 #@! TF.FileFunction,Copper,L2,Bot*
G04 #@! TF.FilePolarity,Positive*
%FSLAX46Y46*%
G04 Gerber Fmt 4.6, Leading zero omitted, Abs format (unit mm)*
G04 Created by KiCad (PCBNEW 5.1.5-52549c5~84~ubuntu19.04.1) date 2020-02-16 17:49:03*
%MOMM*%
%LPD*%
G04 APERTURE LIST*
%ADD10O,1.700000X1.700000*%
%ADD11R,1.700000X1.700000*%
%ADD12O,1.000000X1.000000*%
%ADD13R,1.000000X1.000000*%
%ADD14C,0.800000*%
%ADD15C,0.250000*%
%ADD16C,0.254000*%
G04 APERTURE END LIST*
D10*
X162820000Y-93500000D03*
X160280000Y-93500000D03*
X157740000Y-93500000D03*
D11*
X155200000Y-93500000D03*
D10*
X155180000Y-112525000D03*
X157720000Y-112525000D03*
X160260000Y-112525000D03*
D11*
X162800000Y-112525000D03*
D12*
X147000000Y-106350000D03*
X147000000Y-105080000D03*
X147000000Y-103810000D03*
X147000000Y-102540000D03*
X147000000Y-101270000D03*
D13*
X147000000Y-100000000D03*
D14*
X156125000Y-101450000D03*
X151050000Y-106300000D03*
X154550000Y-105725000D03*
X154075000Y-97725000D03*
X160275000Y-98400000D03*
X153850000Y-108450000D03*
X152625000Y-110650000D03*
D15*
X151275000Y-106300000D02*
X156125000Y-101450000D01*
X151050000Y-106300000D02*
X151275000Y-106300000D01*
D16*
G36*
X153724188Y-92525518D02*
G01*
X153711928Y-92650000D01*
X153711928Y-94350000D01*
X153724188Y-94474482D01*
X153760498Y-94594180D01*
X153819463Y-94704494D01*
X153898815Y-94801185D01*
X153995506Y-94880537D01*
X154105820Y-94939502D01*
X154225518Y-94975812D01*
X154350000Y-94988072D01*
X156050000Y-94988072D01*
X156174482Y-94975812D01*
X156294180Y-94939502D01*
X156404494Y-94880537D01*
X156501185Y-94801185D01*
X156580537Y-94704494D01*
X156639502Y-94594180D01*
X156661513Y-94521620D01*
X156793368Y-94653475D01*
X157036589Y-94815990D01*
X157306842Y-94927932D01*
X157593740Y-94985000D01*
X157886260Y-94985000D01*
X158173158Y-94927932D01*
X158443411Y-94815990D01*
X158686632Y-94653475D01*
X158893475Y-94446632D01*
X159010000Y-94272240D01*
X159126525Y-94446632D01*
X159333368Y-94653475D01*
X159576589Y-94815990D01*
X159846842Y-94927932D01*
X160133740Y-94985000D01*
X160426260Y-94985000D01*
X160713158Y-94927932D01*
X160983411Y-94815990D01*
X161226632Y-94653475D01*
X161433475Y-94446632D01*
X161555195Y-94264466D01*
X161624822Y-94381355D01*
X161819731Y-94597588D01*
X162053080Y-94771641D01*
X162315901Y-94896825D01*
X162463110Y-94941476D01*
X162693000Y-94820155D01*
X162693000Y-93627000D01*
X162673000Y-93627000D01*
X162673000Y-93373000D01*
X162693000Y-93373000D01*
X162693000Y-93353000D01*
X162947000Y-93353000D01*
X162947000Y-93373000D01*
X162967000Y-93373000D01*
X162967000Y-93627000D01*
X162947000Y-93627000D01*
X162947000Y-94820155D01*
X163176890Y-94941476D01*
X163324099Y-94896825D01*
X163586920Y-94771641D01*
X163820269Y-94597588D01*
X163940000Y-94464758D01*
X163940001Y-111109990D01*
X163894180Y-111085498D01*
X163774482Y-111049188D01*
X163650000Y-111036928D01*
X161950000Y-111036928D01*
X161825518Y-111049188D01*
X161705820Y-111085498D01*
X161595506Y-111144463D01*
X161498815Y-111223815D01*
X161419463Y-111320506D01*
X161360498Y-111430820D01*
X161336034Y-111511466D01*
X161260269Y-111427412D01*
X161026920Y-111253359D01*
X160764099Y-111128175D01*
X160616890Y-111083524D01*
X160387000Y-111204845D01*
X160387000Y-112398000D01*
X160407000Y-112398000D01*
X160407000Y-112652000D01*
X160387000Y-112652000D01*
X160387000Y-112672000D01*
X160133000Y-112672000D01*
X160133000Y-112652000D01*
X160113000Y-112652000D01*
X160113000Y-112398000D01*
X160133000Y-112398000D01*
X160133000Y-111204845D01*
X159903110Y-111083524D01*
X159755901Y-111128175D01*
X159493080Y-111253359D01*
X159259731Y-111427412D01*
X159064822Y-111643645D01*
X158995195Y-111760534D01*
X158873475Y-111578368D01*
X158666632Y-111371525D01*
X158423411Y-111209010D01*
X158153158Y-111097068D01*
X157866260Y-111040000D01*
X157573740Y-111040000D01*
X157286842Y-111097068D01*
X157016589Y-111209010D01*
X156773368Y-111371525D01*
X156566525Y-111578368D01*
X156450000Y-111752760D01*
X156333475Y-111578368D01*
X156126632Y-111371525D01*
X155883411Y-111209010D01*
X155613158Y-111097068D01*
X155326260Y-111040000D01*
X155033740Y-111040000D01*
X154746842Y-111097068D01*
X154476589Y-111209010D01*
X154233368Y-111371525D01*
X154026525Y-111578368D01*
X153864010Y-111821589D01*
X153752068Y-112091842D01*
X153695000Y-112378740D01*
X153695000Y-112671260D01*
X153752068Y-112958158D01*
X153864010Y-113228411D01*
X154026525Y-113471632D01*
X154219893Y-113665000D01*
X153783013Y-113665000D01*
X150077663Y-107180639D01*
X150051425Y-107131550D01*
X150024823Y-107099135D01*
X150000556Y-107064951D01*
X149983679Y-107049002D01*
X149968948Y-107031052D01*
X149936530Y-107004447D01*
X149906064Y-106975657D01*
X149886406Y-106963311D01*
X149868450Y-106948575D01*
X149831464Y-106928806D01*
X149795968Y-106906513D01*
X149774276Y-106898238D01*
X149753793Y-106887290D01*
X149713663Y-106875117D01*
X149674497Y-106860176D01*
X149651610Y-106856292D01*
X149629383Y-106849550D01*
X149587648Y-106845440D01*
X149546320Y-106838427D01*
X149490711Y-106840000D01*
X148025551Y-106840000D01*
X148091383Y-106681067D01*
X148135000Y-106461788D01*
X148135000Y-106238212D01*
X148127014Y-106198061D01*
X150015000Y-106198061D01*
X150015000Y-106401939D01*
X150054774Y-106601898D01*
X150132795Y-106790256D01*
X150246063Y-106959774D01*
X150390226Y-107103937D01*
X150559744Y-107217205D01*
X150748102Y-107295226D01*
X150948061Y-107335000D01*
X151151939Y-107335000D01*
X151351898Y-107295226D01*
X151540256Y-107217205D01*
X151709774Y-107103937D01*
X151853937Y-106959774D01*
X151967205Y-106790256D01*
X152043333Y-106606468D01*
X156164802Y-102485000D01*
X156226939Y-102485000D01*
X156426898Y-102445226D01*
X156615256Y-102367205D01*
X156784774Y-102253937D01*
X156928937Y-102109774D01*
X157042205Y-101940256D01*
X157120226Y-101751898D01*
X157160000Y-101551939D01*
X157160000Y-101348061D01*
X157120226Y-101148102D01*
X157042205Y-100959744D01*
X156928937Y-100790226D01*
X156784774Y-100646063D01*
X156615256Y-100532795D01*
X156426898Y-100454774D01*
X156226939Y-100415000D01*
X156023061Y-100415000D01*
X155823102Y-100454774D01*
X155634744Y-100532795D01*
X155465226Y-100646063D01*
X155321063Y-100790226D01*
X155207795Y-100959744D01*
X155129774Y-101148102D01*
X155090000Y-101348061D01*
X155090000Y-101410198D01*
X151221385Y-105278814D01*
X151151939Y-105265000D01*
X150948061Y-105265000D01*
X150748102Y-105304774D01*
X150559744Y-105382795D01*
X150390226Y-105496063D01*
X150246063Y-105640226D01*
X150132795Y-105809744D01*
X150054774Y-105998102D01*
X150015000Y-106198061D01*
X148127014Y-106198061D01*
X148091383Y-106018933D01*
X148005824Y-105812376D01*
X147940759Y-105715000D01*
X148005824Y-105617624D01*
X148091383Y-105411067D01*
X148135000Y-105191788D01*
X148135000Y-104968212D01*
X148091383Y-104748933D01*
X148005824Y-104542376D01*
X147937647Y-104440342D01*
X147987123Y-104370206D01*
X148077446Y-104166864D01*
X148094119Y-104111874D01*
X147967954Y-103937000D01*
X147127000Y-103937000D01*
X147127000Y-103948026D01*
X147111788Y-103945000D01*
X146888212Y-103945000D01*
X146873000Y-103948026D01*
X146873000Y-103937000D01*
X146032046Y-103937000D01*
X145905881Y-104111874D01*
X145922554Y-104166864D01*
X146012877Y-104370206D01*
X146062353Y-104440342D01*
X145994176Y-104542376D01*
X145908617Y-104748933D01*
X145865000Y-104968212D01*
X145865000Y-105191788D01*
X145908617Y-105411067D01*
X145994176Y-105617624D01*
X146059241Y-105715000D01*
X145994176Y-105812376D01*
X145908617Y-106018933D01*
X145865000Y-106238212D01*
X145865000Y-106461788D01*
X145908617Y-106681067D01*
X145974449Y-106840000D01*
X145860000Y-106840000D01*
X145860000Y-99510000D01*
X145861928Y-99510000D01*
X145861928Y-100500000D01*
X145874188Y-100624482D01*
X145910498Y-100744180D01*
X145954888Y-100827226D01*
X145908617Y-100938933D01*
X145865000Y-101158212D01*
X145865000Y-101381788D01*
X145908617Y-101601067D01*
X145994176Y-101807624D01*
X146059241Y-101905000D01*
X145994176Y-102002376D01*
X145908617Y-102208933D01*
X145865000Y-102428212D01*
X145865000Y-102651788D01*
X145908617Y-102871067D01*
X145994176Y-103077624D01*
X146062353Y-103179658D01*
X146012877Y-103249794D01*
X145922554Y-103453136D01*
X145905881Y-103508126D01*
X146032046Y-103683000D01*
X146873000Y-103683000D01*
X146873000Y-103671974D01*
X146888212Y-103675000D01*
X147111788Y-103675000D01*
X147127000Y-103671974D01*
X147127000Y-103683000D01*
X147967954Y-103683000D01*
X148094119Y-103508126D01*
X148077446Y-103453136D01*
X147987123Y-103249794D01*
X147937647Y-103179658D01*
X148005824Y-103077624D01*
X148091383Y-102871067D01*
X148135000Y-102651788D01*
X148135000Y-102428212D01*
X148091383Y-102208933D01*
X148005824Y-102002376D01*
X147940759Y-101905000D01*
X148005824Y-101807624D01*
X148091383Y-101601067D01*
X148135000Y-101381788D01*
X148135000Y-101158212D01*
X148091383Y-100938933D01*
X148045112Y-100827226D01*
X148089502Y-100744180D01*
X148125812Y-100624482D01*
X148138072Y-100500000D01*
X148138072Y-99510000D01*
X149497357Y-99510000D01*
X149559409Y-99510526D01*
X149594161Y-99503919D01*
X149629383Y-99500450D01*
X149657884Y-99491804D01*
X149687130Y-99486244D01*
X149719928Y-99472983D01*
X149753793Y-99462710D01*
X149780058Y-99448671D01*
X149807660Y-99437511D01*
X149837239Y-99418108D01*
X149868450Y-99401425D01*
X149891472Y-99382531D01*
X149916366Y-99366201D01*
X149941594Y-99341397D01*
X149968948Y-99318948D01*
X149987840Y-99295928D01*
X150009071Y-99275054D01*
X150028974Y-99245806D01*
X150051425Y-99218450D01*
X150080747Y-99163592D01*
X153752596Y-92431871D01*
X153724188Y-92525518D01*
G37*
X153724188Y-92525518D02*
X153711928Y-92650000D01*
X153711928Y-94350000D01*
X153724188Y-94474482D01*
X153760498Y-94594180D01*
X153819463Y-94704494D01*
X153898815Y-94801185D01*
X153995506Y-94880537D01*
X154105820Y-94939502D01*
X154225518Y-94975812D01*
X154350000Y-94988072D01*
X156050000Y-94988072D01*
X156174482Y-94975812D01*
X156294180Y-94939502D01*
X156404494Y-94880537D01*
X156501185Y-94801185D01*
X156580537Y-94704494D01*
X156639502Y-94594180D01*
X156661513Y-94521620D01*
X156793368Y-94653475D01*
X157036589Y-94815990D01*
X157306842Y-94927932D01*
X157593740Y-94985000D01*
X157886260Y-94985000D01*
X158173158Y-94927932D01*
X158443411Y-94815990D01*
X158686632Y-94653475D01*
X158893475Y-94446632D01*
X159010000Y-94272240D01*
X159126525Y-94446632D01*
X159333368Y-94653475D01*
X159576589Y-94815990D01*
X159846842Y-94927932D01*
X160133740Y-94985000D01*
X160426260Y-94985000D01*
X160713158Y-94927932D01*
X160983411Y-94815990D01*
X161226632Y-94653475D01*
X161433475Y-94446632D01*
X161555195Y-94264466D01*
X161624822Y-94381355D01*
X161819731Y-94597588D01*
X162053080Y-94771641D01*
X162315901Y-94896825D01*
X162463110Y-94941476D01*
X162693000Y-94820155D01*
X162693000Y-93627000D01*
X162673000Y-93627000D01*
X162673000Y-93373000D01*
X162693000Y-93373000D01*
X162693000Y-93353000D01*
X162947000Y-93353000D01*
X162947000Y-93373000D01*
X162967000Y-93373000D01*
X162967000Y-93627000D01*
X162947000Y-93627000D01*
X162947000Y-94820155D01*
X163176890Y-94941476D01*
X163324099Y-94896825D01*
X163586920Y-94771641D01*
X163820269Y-94597588D01*
X163940000Y-94464758D01*
X163940001Y-111109990D01*
X163894180Y-111085498D01*
X163774482Y-111049188D01*
X163650000Y-111036928D01*
X161950000Y-111036928D01*
X161825518Y-111049188D01*
X161705820Y-111085498D01*
X161595506Y-111144463D01*
X161498815Y-111223815D01*
X161419463Y-111320506D01*
X161360498Y-111430820D01*
X161336034Y-111511466D01*
X161260269Y-111427412D01*
X161026920Y-111253359D01*
X160764099Y-111128175D01*
X160616890Y-111083524D01*
X160387000Y-111204845D01*
X160387000Y-112398000D01*
X160407000Y-112398000D01*
X160407000Y-112652000D01*
X160387000Y-112652000D01*
X160387000Y-112672000D01*
X160133000Y-112672000D01*
X160133000Y-112652000D01*
X160113000Y-112652000D01*
X160113000Y-112398000D01*
X160133000Y-112398000D01*
X160133000Y-111204845D01*
X159903110Y-111083524D01*
X159755901Y-111128175D01*
X159493080Y-111253359D01*
X159259731Y-111427412D01*
X159064822Y-111643645D01*
X158995195Y-111760534D01*
X158873475Y-111578368D01*
X158666632Y-111371525D01*
X158423411Y-111209010D01*
X158153158Y-111097068D01*
X157866260Y-111040000D01*
X157573740Y-111040000D01*
X157286842Y-111097068D01*
X157016589Y-111209010D01*
X156773368Y-111371525D01*
X156566525Y-111578368D01*
X156450000Y-111752760D01*
X156333475Y-111578368D01*
X156126632Y-111371525D01*
X155883411Y-111209010D01*
X155613158Y-111097068D01*
X155326260Y-111040000D01*
X155033740Y-111040000D01*
X154746842Y-111097068D01*
X154476589Y-111209010D01*
X154233368Y-111371525D01*
X154026525Y-111578368D01*
X153864010Y-111821589D01*
X153752068Y-112091842D01*
X153695000Y-112378740D01*
X153695000Y-112671260D01*
X153752068Y-112958158D01*
X153864010Y-113228411D01*
X154026525Y-113471632D01*
X154219893Y-113665000D01*
X153783013Y-113665000D01*
X150077663Y-107180639D01*
X150051425Y-107131550D01*
X150024823Y-107099135D01*
X150000556Y-107064951D01*
X149983679Y-107049002D01*
X149968948Y-107031052D01*
X149936530Y-107004447D01*
X149906064Y-106975657D01*
X149886406Y-106963311D01*
X149868450Y-106948575D01*
X149831464Y-106928806D01*
X149795968Y-106906513D01*
X149774276Y-106898238D01*
X149753793Y-106887290D01*
X149713663Y-106875117D01*
X149674497Y-106860176D01*
X149651610Y-106856292D01*
X149629383Y-106849550D01*
X149587648Y-106845440D01*
X149546320Y-106838427D01*
X149490711Y-106840000D01*
X148025551Y-106840000D01*
X148091383Y-106681067D01*
X148135000Y-106461788D01*
X148135000Y-106238212D01*
X148127014Y-106198061D01*
X150015000Y-106198061D01*
X150015000Y-106401939D01*
X150054774Y-106601898D01*
X150132795Y-106790256D01*
X150246063Y-106959774D01*
X150390226Y-107103937D01*
X150559744Y-107217205D01*
X150748102Y-107295226D01*
X150948061Y-107335000D01*
X151151939Y-107335000D01*
X151351898Y-107295226D01*
X151540256Y-107217205D01*
X151709774Y-107103937D01*
X151853937Y-106959774D01*
X151967205Y-106790256D01*
X152043333Y-106606468D01*
X156164802Y-102485000D01*
X156226939Y-102485000D01*
X156426898Y-102445226D01*
X156615256Y-102367205D01*
X156784774Y-102253937D01*
X156928937Y-102109774D01*
X157042205Y-101940256D01*
X157120226Y-101751898D01*
X157160000Y-101551939D01*
X157160000Y-101348061D01*
X157120226Y-101148102D01*
X157042205Y-100959744D01*
X156928937Y-100790226D01*
X156784774Y-100646063D01*
X156615256Y-100532795D01*
X156426898Y-100454774D01*
X156226939Y-100415000D01*
X156023061Y-100415000D01*
X155823102Y-100454774D01*
X155634744Y-100532795D01*
X155465226Y-100646063D01*
X155321063Y-100790226D01*
X155207795Y-100959744D01*
X155129774Y-101148102D01*
X155090000Y-101348061D01*
X155090000Y-101410198D01*
X151221385Y-105278814D01*
X151151939Y-105265000D01*
X150948061Y-105265000D01*
X150748102Y-105304774D01*
X150559744Y-105382795D01*
X150390226Y-105496063D01*
X150246063Y-105640226D01*
X150132795Y-105809744D01*
X150054774Y-105998102D01*
X150015000Y-106198061D01*
X148127014Y-106198061D01*
X148091383Y-106018933D01*
X148005824Y-105812376D01*
X147940759Y-105715000D01*
X148005824Y-105617624D01*
X148091383Y-105411067D01*
X148135000Y-105191788D01*
X148135000Y-104968212D01*
X148091383Y-104748933D01*
X148005824Y-104542376D01*
X147937647Y-104440342D01*
X147987123Y-104370206D01*
X148077446Y-104166864D01*
X148094119Y-104111874D01*
X147967954Y-103937000D01*
X147127000Y-103937000D01*
X147127000Y-103948026D01*
X147111788Y-103945000D01*
X146888212Y-103945000D01*
X146873000Y-103948026D01*
X146873000Y-103937000D01*
X146032046Y-103937000D01*
X145905881Y-104111874D01*
X145922554Y-104166864D01*
X146012877Y-104370206D01*
X146062353Y-104440342D01*
X145994176Y-104542376D01*
X145908617Y-104748933D01*
X145865000Y-104968212D01*
X145865000Y-105191788D01*
X145908617Y-105411067D01*
X145994176Y-105617624D01*
X146059241Y-105715000D01*
X145994176Y-105812376D01*
X145908617Y-106018933D01*
X145865000Y-106238212D01*
X145865000Y-106461788D01*
X145908617Y-106681067D01*
X145974449Y-106840000D01*
X145860000Y-106840000D01*
X145860000Y-99510000D01*
X145861928Y-99510000D01*
X145861928Y-100500000D01*
X145874188Y-100624482D01*
X145910498Y-100744180D01*
X145954888Y-100827226D01*
X145908617Y-100938933D01*
X145865000Y-101158212D01*
X145865000Y-101381788D01*
X145908617Y-101601067D01*
X145994176Y-101807624D01*
X146059241Y-101905000D01*
X145994176Y-102002376D01*
X145908617Y-102208933D01*
X145865000Y-102428212D01*
X145865000Y-102651788D01*
X145908617Y-102871067D01*
X145994176Y-103077624D01*
X146062353Y-103179658D01*
X146012877Y-103249794D01*
X145922554Y-103453136D01*
X145905881Y-103508126D01*
X146032046Y-103683000D01*
X146873000Y-103683000D01*
X146873000Y-103671974D01*
X146888212Y-103675000D01*
X147111788Y-103675000D01*
X147127000Y-103671974D01*
X147127000Y-103683000D01*
X147967954Y-103683000D01*
X148094119Y-103508126D01*
X148077446Y-103453136D01*
X147987123Y-103249794D01*
X147937647Y-103179658D01*
X148005824Y-103077624D01*
X148091383Y-102871067D01*
X148135000Y-102651788D01*
X148135000Y-102428212D01*
X148091383Y-102208933D01*
X148005824Y-102002376D01*
X147940759Y-101905000D01*
X148005824Y-101807624D01*
X148091383Y-101601067D01*
X148135000Y-101381788D01*
X148135000Y-101158212D01*
X148091383Y-100938933D01*
X148045112Y-100827226D01*
X148089502Y-100744180D01*
X148125812Y-100624482D01*
X148138072Y-100500000D01*
X148138072Y-99510000D01*
X149497357Y-99510000D01*
X149559409Y-99510526D01*
X149594161Y-99503919D01*
X149629383Y-99500450D01*
X149657884Y-99491804D01*
X149687130Y-99486244D01*
X149719928Y-99472983D01*
X149753793Y-99462710D01*
X149780058Y-99448671D01*
X149807660Y-99437511D01*
X149837239Y-99418108D01*
X149868450Y-99401425D01*
X149891472Y-99382531D01*
X149916366Y-99366201D01*
X149941594Y-99341397D01*
X149968948Y-99318948D01*
X149987840Y-99295928D01*
X150009071Y-99275054D01*
X150028974Y-99245806D01*
X150051425Y-99218450D01*
X150080747Y-99163592D01*
X153752596Y-92431871D01*
X153724188Y-92525518D01*
M02*
