G04 #@! TF.GenerationSoftware,KiCad,Pcbnew,5.1.5-52549c5~84~ubuntu19.04.1*
G04 #@! TF.CreationDate,2020-02-16T17:49:03+01:00*
G04 #@! TF.ProjectId,ilulissat_debug,696c756c-6973-4736-9174-5f6465627567,rev?*
G04 #@! TF.SameCoordinates,Original*
G04 #@! TF.FileFunction,Legend,Bot*
G04 #@! TF.FilePolarity,Positive*
%FSLAX46Y46*%
G04 Gerber Fmt 4.6, Leading zero omitted, Abs format (unit mm)*
G04 Created by KiCad (PCBNEW 5.1.5-52549c5~84~ubuntu19.04.1) date 2020-02-16 17:49:03*
%MOMM*%
%LPD*%
G04 APERTURE LIST*
%ADD10C,0.150000*%
%ADD11C,0.120000*%
G04 APERTURE END LIST*
D10*
X151923809Y-106077380D02*
X151304761Y-106077380D01*
X151638095Y-106458333D01*
X151495238Y-106458333D01*
X151399999Y-106505952D01*
X151352380Y-106553571D01*
X151304761Y-106648809D01*
X151304761Y-106886904D01*
X151352380Y-106982142D01*
X151399999Y-107029761D01*
X151495238Y-107077380D01*
X151780952Y-107077380D01*
X151876190Y-107029761D01*
X151923809Y-106982142D01*
X150876190Y-106982142D02*
X150828571Y-107029761D01*
X150876190Y-107077380D01*
X150923809Y-107029761D01*
X150876190Y-106982142D01*
X150876190Y-107077380D01*
X150495238Y-106077380D02*
X149876190Y-106077380D01*
X150209523Y-106458333D01*
X150066666Y-106458333D01*
X149971428Y-106505952D01*
X149923809Y-106553571D01*
X149876190Y-106648809D01*
X149876190Y-106886904D01*
X149923809Y-106982142D01*
X149971428Y-107029761D01*
X150066666Y-107077380D01*
X150352380Y-107077380D01*
X150447619Y-107029761D01*
X150495238Y-106982142D01*
X149590476Y-106077380D02*
X149257142Y-107077380D01*
X148923809Y-106077380D01*
X153542857Y-105644761D02*
X153400000Y-105692380D01*
X153161905Y-105692380D01*
X153066667Y-105644761D01*
X153019048Y-105597142D01*
X152971429Y-105501904D01*
X152971429Y-105406666D01*
X153019048Y-105311428D01*
X153066667Y-105263809D01*
X153161905Y-105216190D01*
X153352381Y-105168571D01*
X153447619Y-105120952D01*
X153495238Y-105073333D01*
X153542857Y-104978095D01*
X153542857Y-104882857D01*
X153495238Y-104787619D01*
X153447619Y-104740000D01*
X153352381Y-104692380D01*
X153114286Y-104692380D01*
X152971429Y-104740000D01*
X152638095Y-104692380D02*
X152400000Y-105692380D01*
X152209524Y-104978095D01*
X152019048Y-105692380D01*
X151780953Y-104692380D01*
X150828572Y-105597142D02*
X150876191Y-105644761D01*
X151019048Y-105692380D01*
X151114286Y-105692380D01*
X151257143Y-105644761D01*
X151352381Y-105549523D01*
X151400000Y-105454285D01*
X151447619Y-105263809D01*
X151447619Y-105120952D01*
X151400000Y-104930476D01*
X151352381Y-104835238D01*
X151257143Y-104740000D01*
X151114286Y-104692380D01*
X151019048Y-104692380D01*
X150876191Y-104740000D01*
X150828572Y-104787619D01*
X149923810Y-105692380D02*
X150400000Y-105692380D01*
X150400000Y-104692380D01*
X149590476Y-105692380D02*
X149590476Y-104692380D01*
X149019048Y-105692380D02*
X149447619Y-105120952D01*
X149019048Y-104692380D02*
X149590476Y-105263809D01*
X151114285Y-103355000D02*
X151209523Y-103307380D01*
X151352381Y-103307380D01*
X151495238Y-103355000D01*
X151590476Y-103450238D01*
X151638095Y-103545476D01*
X151685714Y-103735952D01*
X151685714Y-103878809D01*
X151638095Y-104069285D01*
X151590476Y-104164523D01*
X151495238Y-104259761D01*
X151352381Y-104307380D01*
X151257142Y-104307380D01*
X151114285Y-104259761D01*
X151066666Y-104212142D01*
X151066666Y-103878809D01*
X151257142Y-103878809D01*
X150638095Y-104307380D02*
X150638095Y-103307380D01*
X150066666Y-104307380D01*
X150066666Y-103307380D01*
X149590476Y-104307380D02*
X149590476Y-103307380D01*
X149352381Y-103307380D01*
X149209523Y-103355000D01*
X149114285Y-103450238D01*
X149066666Y-103545476D01*
X149019047Y-103735952D01*
X149019047Y-103878809D01*
X149066666Y-104069285D01*
X149114285Y-104164523D01*
X149209523Y-104259761D01*
X149352381Y-104307380D01*
X149590476Y-104307380D01*
X153257143Y-102874761D02*
X153114286Y-102922380D01*
X152876191Y-102922380D01*
X152780953Y-102874761D01*
X152733334Y-102827142D01*
X152685715Y-102731904D01*
X152685715Y-102636666D01*
X152733334Y-102541428D01*
X152780953Y-102493809D01*
X152876191Y-102446190D01*
X153066667Y-102398571D01*
X153161905Y-102350952D01*
X153209524Y-102303333D01*
X153257143Y-102208095D01*
X153257143Y-102112857D01*
X153209524Y-102017619D01*
X153161905Y-101970000D01*
X153066667Y-101922380D01*
X152828572Y-101922380D01*
X152685715Y-101970000D01*
X152352381Y-101922380D02*
X152114286Y-102922380D01*
X151923810Y-102208095D01*
X151733334Y-102922380D01*
X151495238Y-101922380D01*
X151114286Y-102922380D02*
X151114286Y-101922380D01*
X150876191Y-101922380D01*
X150733334Y-101970000D01*
X150638096Y-102065238D01*
X150590476Y-102160476D01*
X150542857Y-102350952D01*
X150542857Y-102493809D01*
X150590476Y-102684285D01*
X150638096Y-102779523D01*
X150733334Y-102874761D01*
X150876191Y-102922380D01*
X151114286Y-102922380D01*
X150114286Y-102922380D02*
X150114286Y-101922380D01*
X149447619Y-101922380D02*
X149257143Y-101922380D01*
X149161905Y-101970000D01*
X149066667Y-102065238D01*
X149019048Y-102255714D01*
X149019048Y-102589047D01*
X149066667Y-102779523D01*
X149161905Y-102874761D01*
X149257143Y-102922380D01*
X149447619Y-102922380D01*
X149542857Y-102874761D01*
X149638096Y-102779523D01*
X149685715Y-102589047D01*
X149685715Y-102255714D01*
X149638096Y-102065238D01*
X149542857Y-101970000D01*
X149447619Y-101922380D01*
X154971428Y-100537380D02*
X154971428Y-101346904D01*
X154923809Y-101442142D01*
X154876190Y-101489761D01*
X154780952Y-101537380D01*
X154590476Y-101537380D01*
X154495238Y-101489761D01*
X154447619Y-101442142D01*
X154400000Y-101346904D01*
X154400000Y-100537380D01*
X153971428Y-101251666D02*
X153495238Y-101251666D01*
X154066667Y-101537380D02*
X153733333Y-100537380D01*
X153400000Y-101537380D01*
X152495238Y-101537380D02*
X152828571Y-101061190D01*
X153066667Y-101537380D02*
X153066667Y-100537380D01*
X152685714Y-100537380D01*
X152590476Y-100585000D01*
X152542857Y-100632619D01*
X152495238Y-100727857D01*
X152495238Y-100870714D01*
X152542857Y-100965952D01*
X152590476Y-101013571D01*
X152685714Y-101061190D01*
X153066667Y-101061190D01*
X152209524Y-100537380D02*
X151638095Y-100537380D01*
X151923809Y-101537380D02*
X151923809Y-100537380D01*
X151542857Y-101632619D02*
X150780952Y-101632619D01*
X149971428Y-101537380D02*
X150304762Y-101061190D01*
X150542857Y-101537380D02*
X150542857Y-100537380D01*
X150161905Y-100537380D01*
X150066667Y-100585000D01*
X150019048Y-100632619D01*
X149971428Y-100727857D01*
X149971428Y-100870714D01*
X150019048Y-100965952D01*
X150066667Y-101013571D01*
X150161905Y-101061190D01*
X150542857Y-101061190D01*
X149638095Y-100537380D02*
X148971428Y-101537380D01*
X148971428Y-100537380D02*
X149638095Y-101537380D01*
X154733333Y-99152380D02*
X154733333Y-99961904D01*
X154685714Y-100057142D01*
X154638095Y-100104761D01*
X154542857Y-100152380D01*
X154352380Y-100152380D01*
X154257142Y-100104761D01*
X154209523Y-100057142D01*
X154161904Y-99961904D01*
X154161904Y-99152380D01*
X153733333Y-99866666D02*
X153257142Y-99866666D01*
X153828571Y-100152380D02*
X153495238Y-99152380D01*
X153161904Y-100152380D01*
X152257142Y-100152380D02*
X152590476Y-99676190D01*
X152828571Y-100152380D02*
X152828571Y-99152380D01*
X152447619Y-99152380D01*
X152352380Y-99200000D01*
X152304761Y-99247619D01*
X152257142Y-99342857D01*
X152257142Y-99485714D01*
X152304761Y-99580952D01*
X152352380Y-99628571D01*
X152447619Y-99676190D01*
X152828571Y-99676190D01*
X151971428Y-99152380D02*
X151400000Y-99152380D01*
X151685714Y-100152380D02*
X151685714Y-99152380D01*
X151304761Y-100247619D02*
X150542857Y-100247619D01*
X150447619Y-99152380D02*
X149876190Y-99152380D01*
X150161904Y-100152380D02*
X150161904Y-99152380D01*
X149638095Y-99152380D02*
X148971428Y-100152380D01*
X148971428Y-99152380D02*
X149638095Y-100152380D01*
D11*
X147000000Y-99240000D02*
X145670000Y-99240000D01*
X145670000Y-99240000D02*
X145670000Y-100000000D01*
X145670000Y-100635000D02*
X145670000Y-107045000D01*
X146692470Y-107045000D02*
X145670000Y-107045000D01*
X148330000Y-107045000D02*
X147307530Y-107045000D01*
X148330000Y-100635000D02*
X148330000Y-107045000D01*
X146240000Y-100635000D02*
X145670000Y-100635000D01*
X148330000Y-100635000D02*
X147760000Y-100635000D01*
D10*
X147333333Y-97317380D02*
X147333333Y-98031666D01*
X147380952Y-98174523D01*
X147476190Y-98269761D01*
X147619047Y-98317380D01*
X147714285Y-98317380D01*
X146333333Y-98317380D02*
X146904761Y-98317380D01*
X146619047Y-98317380D02*
X146619047Y-97317380D01*
X146714285Y-97460238D01*
X146809523Y-97555476D01*
X146904761Y-97603095D01*
M02*
