G04 #@! TF.GenerationSoftware,KiCad,Pcbnew,5.1.5-52549c5~84~ubuntu19.04.1*
G04 #@! TF.CreationDate,2020-02-16T17:49:03+01:00*
G04 #@! TF.ProjectId,ilulissat_debug,696c756c-6973-4736-9174-5f6465627567,rev?*
G04 #@! TF.SameCoordinates,Original*
G04 #@! TF.FileFunction,Legend,Top*
G04 #@! TF.FilePolarity,Positive*
%FSLAX46Y46*%
G04 Gerber Fmt 4.6, Leading zero omitted, Abs format (unit mm)*
G04 Created by KiCad (PCBNEW 5.1.5-52549c5~84~ubuntu19.04.1) date 2020-02-16 17:49:03*
%MOMM*%
%LPD*%
G04 APERTURE LIST*
%ADD10C,0.150000*%
%ADD11C,0.120000*%
G04 APERTURE END LIST*
D10*
X154502380Y-110470238D02*
X154502380Y-109851190D01*
X154883333Y-110184524D01*
X154883333Y-110041667D01*
X154930952Y-109946428D01*
X154978571Y-109898809D01*
X155073809Y-109851190D01*
X155311904Y-109851190D01*
X155407142Y-109898809D01*
X155454761Y-109946428D01*
X155502380Y-110041667D01*
X155502380Y-110327381D01*
X155454761Y-110422619D01*
X155407142Y-110470238D01*
X155407142Y-109422619D02*
X155454761Y-109375000D01*
X155502380Y-109422619D01*
X155454761Y-109470238D01*
X155407142Y-109422619D01*
X155502380Y-109422619D01*
X154502380Y-109041667D02*
X154502380Y-108422619D01*
X154883333Y-108755952D01*
X154883333Y-108613095D01*
X154930952Y-108517857D01*
X154978571Y-108470238D01*
X155073809Y-108422619D01*
X155311904Y-108422619D01*
X155407142Y-108470238D01*
X155454761Y-108517857D01*
X155502380Y-108613095D01*
X155502380Y-108898809D01*
X155454761Y-108994048D01*
X155407142Y-109041667D01*
X154502380Y-108136905D02*
X155502380Y-107803571D01*
X154502380Y-107470238D01*
X158063094Y-110422618D02*
X158110713Y-110279761D01*
X158110713Y-110041666D01*
X158063094Y-109946428D01*
X158015475Y-109898809D01*
X157920237Y-109851190D01*
X157824999Y-109851190D01*
X157729761Y-109898809D01*
X157682142Y-109946428D01*
X157634523Y-110041666D01*
X157586904Y-110232142D01*
X157539285Y-110327380D01*
X157491666Y-110374999D01*
X157396428Y-110422618D01*
X157301190Y-110422618D01*
X157205952Y-110374999D01*
X157158333Y-110327380D01*
X157110713Y-110232142D01*
X157110713Y-109994047D01*
X157158333Y-109851190D01*
X157110713Y-109517856D02*
X158110713Y-109279761D01*
X157396428Y-109089285D01*
X158110713Y-108898809D01*
X157110713Y-108660714D01*
X158015475Y-107708333D02*
X158063094Y-107755952D01*
X158110713Y-107898809D01*
X158110713Y-107994047D01*
X158063094Y-108136904D01*
X157967856Y-108232142D01*
X157872618Y-108279761D01*
X157682142Y-108327380D01*
X157539285Y-108327380D01*
X157348809Y-108279761D01*
X157253571Y-108232142D01*
X157158333Y-108136904D01*
X157110713Y-107994047D01*
X157110713Y-107898809D01*
X157158333Y-107755952D01*
X157205952Y-107708333D01*
X158110713Y-106803571D02*
X158110713Y-107279761D01*
X157110713Y-107279761D01*
X158110713Y-106470237D02*
X157110713Y-106470237D01*
X158110713Y-105898809D02*
X157539285Y-106327380D01*
X157110713Y-105898809D02*
X157682142Y-106470237D01*
X159766666Y-109851190D02*
X159719046Y-109946428D01*
X159719046Y-110089286D01*
X159766666Y-110232143D01*
X159861904Y-110327381D01*
X159957142Y-110375000D01*
X160147618Y-110422619D01*
X160290475Y-110422619D01*
X160480951Y-110375000D01*
X160576189Y-110327381D01*
X160671427Y-110232143D01*
X160719046Y-110089286D01*
X160719046Y-109994047D01*
X160671427Y-109851190D01*
X160623808Y-109803571D01*
X160290475Y-109803571D01*
X160290475Y-109994047D01*
X160719046Y-109375000D02*
X159719046Y-109375000D01*
X160719046Y-108803571D01*
X159719046Y-108803571D01*
X160719046Y-108327381D02*
X159719046Y-108327381D01*
X159719046Y-108089286D01*
X159766666Y-107946428D01*
X159861904Y-107851190D01*
X159957142Y-107803571D01*
X160147618Y-107755952D01*
X160290475Y-107755952D01*
X160480951Y-107803571D01*
X160576189Y-107851190D01*
X160671427Y-107946428D01*
X160719046Y-108089286D01*
X160719046Y-108327381D01*
X163279761Y-110422618D02*
X163327380Y-110279761D01*
X163327380Y-110041666D01*
X163279761Y-109946428D01*
X163232142Y-109898809D01*
X163136904Y-109851190D01*
X163041666Y-109851190D01*
X162946428Y-109898809D01*
X162898809Y-109946428D01*
X162851190Y-110041666D01*
X162803571Y-110232142D01*
X162755952Y-110327380D01*
X162708333Y-110374999D01*
X162613095Y-110422618D01*
X162517857Y-110422618D01*
X162422619Y-110374999D01*
X162375000Y-110327380D01*
X162327380Y-110232142D01*
X162327380Y-109994047D01*
X162375000Y-109851190D01*
X162327380Y-109517856D02*
X163327380Y-109279761D01*
X162613095Y-109089285D01*
X163327380Y-108898809D01*
X162327380Y-108660713D01*
X163327380Y-108279761D02*
X162327380Y-108279761D01*
X162327380Y-108041666D01*
X162375000Y-107898809D01*
X162470238Y-107803571D01*
X162565476Y-107755951D01*
X162755952Y-107708332D01*
X162898809Y-107708332D01*
X163089285Y-107755951D01*
X163184523Y-107803571D01*
X163279761Y-107898809D01*
X163327380Y-108041666D01*
X163327380Y-108279761D01*
X163327380Y-107279761D02*
X162327380Y-107279761D01*
X162327380Y-106613094D02*
X162327380Y-106422618D01*
X162375000Y-106327380D01*
X162470238Y-106232142D01*
X162660714Y-106184523D01*
X162994047Y-106184523D01*
X163184523Y-106232142D01*
X163279761Y-106327380D01*
X163327380Y-106422618D01*
X163327380Y-106613094D01*
X163279761Y-106708332D01*
X163184523Y-106803571D01*
X162994047Y-106851190D01*
X162660714Y-106851190D01*
X162470238Y-106803571D01*
X162375000Y-106708332D01*
X162327380Y-106613094D01*
X154577380Y-101058333D02*
X155386904Y-101058333D01*
X155482142Y-101010714D01*
X155529761Y-100963095D01*
X155577380Y-100867857D01*
X155577380Y-100677380D01*
X155529761Y-100582142D01*
X155482142Y-100534523D01*
X155386904Y-100486904D01*
X154577380Y-100486904D01*
X155291666Y-100058333D02*
X155291666Y-99582142D01*
X155577380Y-100153571D02*
X154577380Y-99820238D01*
X155577380Y-99486904D01*
X155577380Y-98582142D02*
X155101190Y-98915476D01*
X155577380Y-99153571D02*
X154577380Y-99153571D01*
X154577380Y-98772619D01*
X154625000Y-98677380D01*
X154672619Y-98629761D01*
X154767857Y-98582142D01*
X154910714Y-98582142D01*
X155005952Y-98629761D01*
X155053571Y-98677380D01*
X155101190Y-98772619D01*
X155101190Y-99153571D01*
X154577380Y-98296428D02*
X154577380Y-97725000D01*
X155577380Y-98010714D02*
X154577380Y-98010714D01*
X155672619Y-97629761D02*
X155672619Y-96867857D01*
X154577380Y-96772619D02*
X154577380Y-96201190D01*
X155577380Y-96486904D02*
X154577380Y-96486904D01*
X154577380Y-95963095D02*
X155577380Y-95296428D01*
X154577380Y-95296428D02*
X155577380Y-95963095D01*
X157235713Y-101296427D02*
X158045237Y-101296427D01*
X158140475Y-101248808D01*
X158188094Y-101201189D01*
X158235713Y-101105951D01*
X158235713Y-100915475D01*
X158188094Y-100820237D01*
X158140475Y-100772618D01*
X158045237Y-100724999D01*
X157235713Y-100724999D01*
X157949999Y-100296427D02*
X157949999Y-99820237D01*
X158235713Y-100391666D02*
X157235713Y-100058332D01*
X158235713Y-99724999D01*
X158235713Y-98820237D02*
X157759523Y-99153570D01*
X158235713Y-99391666D02*
X157235713Y-99391666D01*
X157235713Y-99010713D01*
X157283333Y-98915475D01*
X157330952Y-98867856D01*
X157426190Y-98820237D01*
X157569047Y-98820237D01*
X157664285Y-98867856D01*
X157711904Y-98915475D01*
X157759523Y-99010713D01*
X157759523Y-99391666D01*
X157235713Y-98534523D02*
X157235713Y-97963094D01*
X158235713Y-98248808D02*
X157235713Y-98248808D01*
X158330952Y-97867856D02*
X158330952Y-97105951D01*
X158235713Y-96296427D02*
X157759523Y-96629761D01*
X158235713Y-96867856D02*
X157235713Y-96867856D01*
X157235713Y-96486904D01*
X157283333Y-96391666D01*
X157330952Y-96344047D01*
X157426190Y-96296427D01*
X157569047Y-96296427D01*
X157664285Y-96344047D01*
X157711904Y-96391666D01*
X157759523Y-96486904D01*
X157759523Y-96867856D01*
X157235713Y-95963094D02*
X158235713Y-95296427D01*
X157235713Y-95296427D02*
X158235713Y-95963094D01*
X159894046Y-98248809D02*
X159894046Y-97629761D01*
X160274999Y-97963095D01*
X160274999Y-97820238D01*
X160322618Y-97724999D01*
X160370237Y-97677380D01*
X160465475Y-97629761D01*
X160703570Y-97629761D01*
X160798808Y-97677380D01*
X160846427Y-97724999D01*
X160894046Y-97820238D01*
X160894046Y-98105952D01*
X160846427Y-98201190D01*
X160798808Y-98248809D01*
X160798808Y-97201190D02*
X160846427Y-97153571D01*
X160894046Y-97201190D01*
X160846427Y-97248809D01*
X160798808Y-97201190D01*
X160894046Y-97201190D01*
X159894046Y-96820238D02*
X159894046Y-96201190D01*
X160274999Y-96534523D01*
X160274999Y-96391666D01*
X160322618Y-96296428D01*
X160370237Y-96248809D01*
X160465475Y-96201190D01*
X160703570Y-96201190D01*
X160798808Y-96248809D01*
X160846427Y-96296428D01*
X160894046Y-96391666D01*
X160894046Y-96677380D01*
X160846427Y-96772619D01*
X160798808Y-96820238D01*
X159894046Y-95915476D02*
X160894046Y-95582142D01*
X159894046Y-95248809D01*
X162375000Y-97416785D02*
X162327380Y-97512023D01*
X162327380Y-97654880D01*
X162375000Y-97797737D01*
X162470238Y-97892975D01*
X162565476Y-97940594D01*
X162755952Y-97988213D01*
X162898809Y-97988213D01*
X163089285Y-97940594D01*
X163184523Y-97892975D01*
X163279761Y-97797737D01*
X163327380Y-97654880D01*
X163327380Y-97559642D01*
X163279761Y-97416785D01*
X163232142Y-97369166D01*
X162898809Y-97369166D01*
X162898809Y-97559642D01*
X163327380Y-96940594D02*
X162327380Y-96940594D01*
X163327380Y-96369166D01*
X162327380Y-96369166D01*
X163327380Y-95892975D02*
X162327380Y-95892975D01*
X162327380Y-95654880D01*
X162375000Y-95512023D01*
X162470238Y-95416785D01*
X162565476Y-95369166D01*
X162755952Y-95321547D01*
X162898809Y-95321547D01*
X163089285Y-95369166D01*
X163184523Y-95416785D01*
X163279761Y-95512023D01*
X163327380Y-95654880D01*
X163327380Y-95892975D01*
D11*
X153870000Y-94830000D02*
X153870000Y-93500000D01*
X155200000Y-94830000D02*
X153870000Y-94830000D01*
X156470000Y-94830000D02*
X156470000Y-92170000D01*
X156470000Y-92170000D02*
X164150000Y-92170000D01*
X156470000Y-94830000D02*
X164150000Y-94830000D01*
X164150000Y-94830000D02*
X164150000Y-92170000D01*
X164130000Y-111195000D02*
X164130000Y-112525000D01*
X162800000Y-111195000D02*
X164130000Y-111195000D01*
X161530000Y-111195000D02*
X161530000Y-113855000D01*
X161530000Y-113855000D02*
X153850000Y-113855000D01*
X161530000Y-111195000D02*
X153850000Y-111195000D01*
X153850000Y-111195000D02*
X153850000Y-113855000D01*
D10*
X152322380Y-93833333D02*
X153036666Y-93833333D01*
X153179523Y-93880952D01*
X153274761Y-93976190D01*
X153322380Y-94119047D01*
X153322380Y-94214285D01*
X152322380Y-93452380D02*
X152322380Y-92833333D01*
X152703333Y-93166666D01*
X152703333Y-93023809D01*
X152750952Y-92928571D01*
X152798571Y-92880952D01*
X152893809Y-92833333D01*
X153131904Y-92833333D01*
X153227142Y-92880952D01*
X153274761Y-92928571D01*
X153322380Y-93023809D01*
X153322380Y-93309523D01*
X153274761Y-93404761D01*
X153227142Y-93452380D01*
X164582380Y-112858333D02*
X165296666Y-112858333D01*
X165439523Y-112905952D01*
X165534761Y-113001190D01*
X165582380Y-113144047D01*
X165582380Y-113239285D01*
X164677619Y-112429761D02*
X164630000Y-112382142D01*
X164582380Y-112286904D01*
X164582380Y-112048809D01*
X164630000Y-111953571D01*
X164677619Y-111905952D01*
X164772857Y-111858333D01*
X164868095Y-111858333D01*
X165010952Y-111905952D01*
X165582380Y-112477380D01*
X165582380Y-111858333D01*
M02*
